<svg xmlns="http://www.w3.org/2000/svg" width="43.134" height="46" viewBox="0 0 43.134 46">
  <g id="グループ_8" data-name="グループ 8" transform="translate(-58.5 -5.437)">
    <path id="前面オブジェクトで型抜き_1" data-name="前面オブジェクトで型抜き 1" d="M22.969,45A23.062,23.062,0,0,1,6.727,38.41a22.161,22.161,0,0,1-4.084-26.4A22.842,22.842,0,0,1,9.68,4.146v36.6H26.535a23.632,23.632,0,0,0,10.652-2.3,18.2,18.2,0,0,0,5.03-3.662A23.042,23.042,0,0,1,22.969,45Zm3.4-11.3h0l-.263,0H18.266V10.645l7.844.053.262,0a13.18,13.18,0,0,1,6.177,1.38,10.461,10.461,0,0,1,4.241,4,12.715,12.715,0,0,1,0,12.217,10.407,10.407,0,0,1-4.241,4.028A13.179,13.179,0,0,1,26.373,33.7ZM40.729,8.234a18.972,18.972,0,0,0-3.542-2.278A23.62,23.62,0,0,0,26.535,3.649H10.424A23.32,23.32,0,0,1,40.731,8.232Z" transform="translate(59 5.937)" fill="#fff"/>
    <path id="前面オブジェクトで型抜き_1_-_アウトライン" data-name="前面オブジェクトで型抜き 1 - アウトライン" d="M22.969,45.5a23.624,23.624,0,0,1-13.6-4.251H9.18v-.131a23.656,23.656,0,0,1-2.8-2.351A22.661,22.661,0,0,1,2.2,11.774,23.33,23.33,0,0,1,8.818,4.149h-.1L9.77,3.474l.41-.286v.023a23.82,23.82,0,0,1,30.933,4.7l.293.35-.642.646-.353-.287A18.471,18.471,0,0,0,36.964,6.4,23.127,23.127,0,0,0,26.535,4.149H10.18v36.1H26.535A23.139,23.139,0,0,0,36.964,38a17.7,17.7,0,0,0,4.893-3.561l.777.623A23.54,23.54,0,0,1,22.969,45.5ZM11.2,41.249a22.872,22.872,0,0,0,27.574-3.1q-.659.4-1.362.747a24.125,24.125,0,0,1-10.876,2.358ZM9.18,5.129a22.318,22.318,0,0,0-6.1,7.119,21.661,21.661,0,0,0,3.994,25.8,22.686,22.686,0,0,0,2.1,1.822ZM12.27,3.149H26.535A24.359,24.359,0,0,1,36.988,5.3,22.889,22.889,0,0,0,12.27,3.149ZM26.373,34.2h0l-.266,0h-8.34V10.142l8.342.056.264,0a13.672,13.672,0,0,1,6.409,1.437,10.953,10.953,0,0,1,4.44,4.191,12.8,12.8,0,0,1,1.632,6.368v.015a12.837,12.837,0,0,1-1.631,6.339,10.9,10.9,0,0,1-4.441,4.22A13.671,13.671,0,0,1,26.373,34.2Zm-7.606-1h7.351l.256,0h0a12.687,12.687,0,0,0,5.944-1.323,9.914,9.914,0,0,0,4.041-3.837,12.217,12.217,0,0,0,0-11.712,9.968,9.968,0,0,0-4.042-3.812,12.838,12.838,0,0,0-6.2-1.321h-.01l-7.34-.05Z" transform="translate(59 5.937)" fill="rgba(0,0,0,0)"/>
  </g>
</svg>
